{
  "accessors": [
    {
      "bufferView": 2,
      "componentType": 5126,
      "count": 17019,
      "max": [
        7.662607192993164,
        34.34473419189453,
        30.73564910888672
      ],
      "min": [
        -7.587840557098389,
        -0.5407674312591553,
        -7.540835857391357
      ],
      "type": "VEC3"
    },
    {
      "bufferView": 2,
      "byteOffset": 204228,
      "componentType": 5126,
      "count": 17019,
      "max": [
        1.0,
        1.0,
        1.0
      ],
      "min": [
        -1.0,
        -1.0,
        -1.0
      ],
      "type": "VEC3"
    },
    {
      "bufferView": 1,
      "componentType": 5126,
      "count": 17019,
      "max": [
        1.0,
        1.0
      ],
      "min": [
        0.0,
        0.0
      ],
      "type": "VEC2"
    },
    {
      "bufferView": 1,
      "byteOffset": 136152,
      "componentType": 5126,
      "count": 17019,
      "max": [
        0.0,
        0.0
      ],
      "min": [
        0.0,
        0.0
      ],
      "type": "VEC2"
    },
    {
      "bufferView": 1,
      "byteOffset": 272304,
      "componentType": 5126,
      "count": 17019,
      "max": [
        0.0,
        0.0
      ],
      "min": [
        0.0,
        0.0
      ],
      "type": "VEC2"
    },
    {
      "bufferView": 0,
      "componentType": 5125,
      "count": 84552,
      "type": "SCALAR"
    },
    {
      "bufferView": 2,
      "byteOffset": 408456,
      "componentType": 5126,
      "count": 11787,
      "max": [
        7.687620639801025,
        34.631107330322266,
        24.25128936767578
      ],
      "min": [
        -7.463086128234863,
        -0.4160041809082031,
        -7.894049167633057
      ],
      "type": "VEC3"
    },
    {
      "bufferView": 2,
      "byteOffset": 549900,
      "componentType": 5126,
      "count": 11787,
      "max": [
        1.0,
        1.0,
        1.0
      ],
      "min": [
        -1.0,
        -1.0,
        -1.0
      ],
      "type": "VEC3"
    },
    {
      "bufferView": 1,
      "byteOffset": 408456,
      "componentType": 5126,
      "count": 11787,
      "max": [
        1.0071429014205933,
        1.0
      ],
      "min": [
        0.0,
        0.0
      ],
      "type": "VEC2"
    },
    {
      "bufferView": 1,
      "byteOffset": 502752,
      "componentType": 5126,
      "count": 11787,
      "max": [
        0.0,
        0.0
      ],
      "min": [
        0.0,
        0.0
      ],
      "type": "VEC2"
    },
    {
      "bufferView": 1,
      "byteOffset": 597048,
      "componentType": 5126,
      "count": 11787,
      "max": [
        0.0,
        0.0
      ],
      "min": [
        0.0,
        0.0
      ],
      "type": "VEC2"
    },
    {
      "bufferView": 0,
      "byteOffset": 338208,
      "componentType": 5125,
      "count": 64176,
      "type": "SCALAR"
    },
    {
      "bufferView": 2,
      "byteOffset": 691344,
      "componentType": 5126,
      "count": 3400,
      "max": [
        3.994743585586548,
        29.49250030517578,
        18.799978256225586
      ],
      "min": [
        -3.994569778442383,
        21.506444931030273,
        10.844768524169922
      ],
      "type": "VEC3"
    },
    {
      "bufferView": 2,
      "byteOffset": 732144,
      "componentType": 5126,
      "count": 3400,
      "max": [
        0.9980777502059937,
        0.9989120364189148,
        0.9996944069862366
      ],
      "min": [
        -0.9980723261833191,
        -0.9989091753959656,
        -0.9996941685676575
      ],
      "type": "VEC3"
    },
    {
      "bufferView": 1,
      "byteOffset": 691344,
      "componentType": 5126,
      "count": 3400,
      "max": [
        0.0,
        0.0
      ],
      "min": [
        0.0,
        0.0
      ],
      "type": "VEC2"
    },
    {
      "bufferView": 1,
      "byteOffset": 718544,
      "componentType": 5126,
      "count": 3400,
      "max": [
        6.662173748016357,
        6.825812339782715
      ],
      "min": [
        -5.686147212982178,
        -5.825812339782715
      ],
      "type": "VEC2"
    },
    {
      "bufferView": 1,
      "byteOffset": 745744,
      "componentType": 5126,
      "count": 3400,
      "max": [
        0.0,
        0.0
      ],
      "min": [
        0.0,
        0.0
      ],
      "type": "VEC2"
    },
    {
      "bufferView": 0,
      "byteOffset": 594912,
      "componentType": 5125,
      "count": 12096,
      "type": "SCALAR"
    },
    {
      "bufferView": 2,
      "byteOffset": 772944,
      "componentType": 5126,
      "count": 21251,
      "max": [
        7.410470962524414,
        33.1824836730957,
        30.794025421142578
      ],
      "min": [
        -7.34276008605957,
        -0.4325946271419525,
        -7.894048690795898
      ],
      "type": "VEC3"
    },
    {
      "bufferView": 2,
      "byteOffset": 1027956,
      "componentType": 5126,
      "count": 21251,
      "max": [
        1.0,
        1.0,
        0.9999918341636658
      ],
      "min": [
        -1.0,
        -0.999927282333374,
        -0.9999797940254211
      ],
      "type": "VEC3"
    },
    {
      "bufferView": 1,
      "byteOffset": 772944,
      "componentType": 5126,
      "count": 21251,
      "max": [
        1.0071429014205933,
        1.0
      ],
      "min": [
        0.0,
        0.0
      ],
      "type": "VEC2"
    },
    {
      "bufferView": 1,
      "byteOffset": 942952,
      "componentType": 5126,
      "count": 21251,
      "max": [
        0.0,
        0.0
      ],
      "min": [
        0.0,
        0.0
      ],
      "type": "VEC2"
    },
    {
      "bufferView": 1,
      "byteOffset": 1112960,
      "componentType": 5126,
      "count": 21251,
      "max": [
        0.9999999403953552,
        1.0
      ],
      "min": [
        -5.960464477539063e-08,
        0.0
      ],
      "type": "VEC2"
    },
    {
      "bufferView": 0,
      "byteOffset": 643296,
      "componentType": 5125,
      "count": 115920,
      "type": "SCALAR"
    },
    {
      "bufferView": 2,
      "byteOffset": 1282968,
      "componentType": 5126,
      "count": 2279,
      "max": [
        4.367707252502441,
        21.39657974243164,
        9.544984817504883
      ],
      "min": [
        -4.3675336837768555,
        12.643394470214844,
        0.7923202514648438
      ],
      "type": "VEC3"
    },
    {
      "bufferView": 2,
      "byteOffset": 1310316,
      "componentType": 5126,
      "count": 2279,
      "max": [
        0.9995498657226563,
        0.9991968870162964,
        0.9997277855873108
      ],
      "min": [
        -0.9995498657226563,
        -0.9991968274116516,
        -0.9997277855873108
      ],
      "type": "VEC3"
    },
    {
      "bufferView": 1,
      "byteOffset": 1282968,
      "componentType": 5126,
      "count": 2279,
      "max": [
        0.9947130680084229,
        0.9989999532699585
      ],
      "min": [
        0.005286875180900097,
        0.0009994003921747208
      ],
      "type": "VEC2"
    },
    {
      "bufferView": 1,
      "byteOffset": 1301200,
      "componentType": 5126,
      "count": 2279,
      "max": [
        0.0,
        0.0
      ],
      "min": [
        0.0,
        0.0
      ],
      "type": "VEC2"
    },
    {
      "bufferView": 1,
      "byteOffset": 1319432,
      "componentType": 5126,
      "count": 2279,
      "max": [
        0.9999999403953552,
        1.0
      ],
      "min": [
        -5.960464477539063e-08,
        1.3913767027418089e-08
      ],
      "type": "VEC2"
    },
    {
      "bufferView": 0,
      "byteOffset": 1106976,
      "componentType": 5125,
      "count": 11904,
      "type": "SCALAR"
    },
    {
      "bufferView": 2,
      "byteOffset": 1337664,
      "componentType": 5126,
      "count": 8680,
      "max": [
        4.250312328338623,
        30.811113357543945,
        19.753225326538086
      ],
      "min": [
        -4.250111103057861,
        12.10150146484375,
        0.5445982217788696
      ],
      "type": "VEC3"
    },
    {
      "bufferView": 2,
      "byteOffset": 1441824,
      "componentType": 5126,
      "count": 8680,
      "max": [
        0.9997813105583191,
        0.9997406005859375,
        0.999686598777771
      ],
      "min": [
        -0.9998428821563721,
        -0.9997926354408264,
        -0.999674379825592
      ],
      "type": "VEC3"
    },
    {
      "bufferView": 1,
      "byteOffset": 1337664,
      "componentType": 5126,
      "count": 8680,
      "max": [
        0.0,
        0.0
      ],
      "min": [
        0.0,
        0.0
      ],
      "type": "VEC2"
    },
    {
      "bufferView": 1,
      "byteOffset": 1407104,
      "componentType": 5126,
      "count": 8680,
      "max": [
        0.0,
        0.0
      ],
      "min": [
        0.0,
        0.0
      ],
      "type": "VEC2"
    },
    {
      "bufferView": 1,
      "byteOffset": 1476544,
      "componentType": 5126,
      "count": 8680,
      "max": [
        0.0,
        0.0
      ],
      "min": [
        0.0,
        0.0
      ],
      "type": "VEC2"
    },
    {
      "bufferView": 0,
      "byteOffset": 1154592,
      "componentType": 5125,
      "count": 46080,
      "type": "SCALAR"
    },
    {
      "bufferView": 2,
      "byteOffset": 1545984,
      "componentType": 5126,
      "count": 4344,
      "max": [
        4.25145959854126,
        30.66388702392578,
        19.67753791809082
      ],
      "min": [
        -4.2512335777282715,
        12.084809303283691,
        0.5165654420852661
      ],
      "type": "VEC3"
    },
    {
      "bufferView": 2,
      "byteOffset": 1598112,
      "componentType": 5126,
      "count": 4344,
      "max": [
        0.9996452331542969,
        0.9999513626098633,
        0.9997839331626892
      ],
      "min": [
        -0.99964439868927,
        -0.9999514222145081,
        -0.9997838735580444
      ],
      "type": "VEC3"
    },
    {
      "bufferView": 1,
      "byteOffset": 1545984,
      "componentType": 5126,
      "count": 4344,
      "max": [
        0.0,
        0.0
      ],
      "min": [
        0.0,
        0.0
      ],
      "type": "VEC2"
    },
    {
      "bufferView": 1,
      "byteOffset": 1580736,
      "componentType": 5126,
      "count": 4344,
      "max": [
        0.0,
        0.0
      ],
      "min": [
        0.0,
        0.0
      ],
      "type": "VEC2"
    },
    {
      "bufferView": 1,
      "byteOffset": 1615488,
      "componentType": 5126,
      "count": 4344,
      "max": [
        0.0,
        0.0
      ],
      "min": [
        0.0,
        0.0
      ],
      "type": "VEC2"
    },
    {
      "bufferView": 0,
      "byteOffset": 1338912,
      "componentType": 5125,
      "count": 23040,
      "type": "SCALAR"
    }
  ],
  "asset": {
    "extras": {
      "author": "shatlykxfree (https://sketchfab.com/shatlykxfree)",
      "license": "CC-BY-4.0 (http://creativecommons.org/licenses/by/4.0/)",
      "source": "https://sketchfab.com/3d-models/shelf-with-balls-3d-model-uv-a1ca652635c64fbeab407afaab798f50",
      "title": "Shelf with balls ( 3D model ) + UV"
    },
    "generator": "Sketchfab-15.38.0",
    "version": "2.0"
  },
  "bufferViews": [
    {
      "buffer": 0,
      "byteLength": 1431072,
      "name": "floatBufferViews",
      "target": 34963
    },
    {
      "buffer": 0,
      "byteLength": 1650240,
      "byteOffset": 1431072,
      "byteStride": 8,
      "name": "floatBufferViews",
      "target": 34962
    },
    {
      "buffer": 0,
      "byteLength": 1650240,
      "byteOffset": 3081312,
      "byteStride": 12,
      "name": "floatBufferViews",
      "target": 34962
    }
  ],
  "buffers": [
    {
      "byteLength": 4731552,
      "uri": "scene.bin"
    }
  ],
  "images": [
    {
      "uri": "textures/basketball_baseColor.jpeg"
    },
    {
      "uri": "textures/basketball.001_baseColor.jpeg"
    }
  ],
  "materials": [
    {
      "doubleSided": true,
      "name": "CHROME",
      "pbrMetallicRoughness": {
        "baseColorFactor": [
          0.8,
          0.8,
          0.8,
          1.0
        ],
        "metallicFactor": 0.889764,
        "roughnessFactor": 0.0
      }
    },
    {
      "doubleSided": true,
      "name": "PLASTIK",
      "pbrMetallicRoughness": {
        "baseColorFactor": [
          0.03741,
          0.03741,
          0.03741,
          1.0
        ],
        "metallicFactor": 0.0,
        "roughnessFactor": 0.0
      }
    },
    {
      "doubleSided": true,
      "name": "VOLLEYBALL",
      "pbrMetallicRoughness": {
        "baseColorFactor": [
          0.15854799999999994,
          0.47615399999999947,
          0.8412039999999996,
          1.0
        ],
        "metallicFactor": 0.0,
        "roughnessFactor": 0.405512
      }
    },
    {
      "doubleSided": true,
      "name": "basketball",
      "pbrMetallicRoughness": {
        "baseColorTexture": {
          "index": 0
        },
        "metallicFactor": 0.0,
        "roughnessFactor": 0.5
      }
    },
    {
      "doubleSided": true,
      "name": "basketball.001",
      "pbrMetallicRoughness": {
        "baseColorTexture": {
          "index": 1
        },
        "metallicFactor": 0.0,
        "roughnessFactor": 0.5
      }
    },
    {
      "doubleSided": true,
      "name": "TOP_AK",
      "pbrMetallicRoughness": {
        "baseColorFactor": [
          0.8,
          0.8,
          0.8,
          1.0
        ],
        "metallicFactor": 0.0,
        "roughnessFactor": 0.0
      }
    },
    {
      "doubleSided": true,
      "name": "TOP_GARA",
      "pbrMetallicRoughness": {
        "baseColorFactor": [
          0.0420276,
          0.0420276,
          0.0420276,
          1.0
        ],
        "metallicFactor": 0.0,
        "roughnessFactor": 0.0
      }
    }
  ],
  "meshes": [
    {
      "name": "Object_0",
      "primitives": [
        {
          "attributes": {
            "NORMAL": 1,
            "POSITION": 0,
            "TEXCOORD_0": 2,
            "TEXCOORD_1": 3,
            "TEXCOORD_2": 4
          },
          "indices": 5,
          "material": 0,
          "mode": 4
        }
      ]
    },
    {
      "name": "Object_1",
      "primitives": [
        {
          "attributes": {
            "NORMAL": 7,
            "POSITION": 6,
            "TEXCOORD_0": 8,
            "TEXCOORD_1": 9,
            "TEXCOORD_2": 10
          },
          "indices": 11,
          "material": 1,
          "mode": 4
        }
      ]
    },
    {
      "name": "Object_2",
      "primitives": [
        {
          "attributes": {
            "NORMAL": 13,
            "POSITION": 12,
            "TEXCOORD_0": 14,
            "TEXCOORD_1": 15,
            "TEXCOORD_2": 16
          },
          "indices": 17,
          "material": 2,
          "mode": 4
        }
      ]
    },
    {
      "name": "Object_3",
      "primitives": [
        {
          "attributes": {
            "NORMAL": 19,
            "POSITION": 18,
            "TEXCOORD_0": 20,
            "TEXCOORD_1": 21,
            "TEXCOORD_2": 22
          },
          "indices": 23,
          "material": 3,
          "mode": 4
        }
      ]
    },
    {
      "name": "Object_4",
      "primitives": [
        {
          "attributes": {
            "NORMAL": 25,
            "POSITION": 24,
            "TEXCOORD_0": 26,
            "TEXCOORD_1": 27,
            "TEXCOORD_2": 28
          },
          "indices": 29,
          "material": 4,
          "mode": 4
        }
      ]
    },
    {
      "name": "Object_5",
      "primitives": [
        {
          "attributes": {
            "NORMAL": 31,
            "POSITION": 30,
            "TEXCOORD_0": 32,
            "TEXCOORD_1": 33,
            "TEXCOORD_2": 34
          },
          "indices": 35,
          "material": 5,
          "mode": 4
        }
      ]
    },
    {
      "name": "Object_6",
      "primitives": [
        {
          "attributes": {
            "NORMAL": 37,
            "POSITION": 36,
            "TEXCOORD_0": 38,
            "TEXCOORD_1": 39,
            "TEXCOORD_2": 40
          },
          "indices": 41,
          "material": 6,
          "mode": 4
        }
      ]
    }
  ],
  "nodes": [
    {
      "children": [
        1
      ],
      "matrix": [
        1.0,
        0.0,
        0.0,
        0.0,
        0.0,
        2.220446049250313e-16,
        -1.0,
        0.0,
        0.0,
        1.0,
        2.220446049250313e-16,
        0.0,
        0.0,
        0.0,
        0.0,
        1.0
      ],
      "name": "Sketchfab_model"
    },
    {
      "children": [
        2
      ],
      "name": "root"
    },
    {
      "children": [
        3
      ],
      "matrix": [
        1.0,
        0.0,
        0.0,
        0.0,
        0.0,
        2.220446049250313e-16,
        1.0,
        0.0,
        0.0,
        -1.0,
        2.220446049250313e-16,
        0.0,
        0.0,
        0.0,
        0.0,
        1.0
      ],
      "name": "GLTF_SceneRootNode"
    },
    {
      "children": [
        4,
        5,
        6,
        7,
        8,
        9,
        10
      ],
      "matrix": [
        0.00441065738075609,
        -1.4046206265773996e-09,
        -0.02501411773130951,
        0.0,
        -0.025014117731307704,
        -1.0001203951596365e-08,
        -0.004410657380755207,
        0.0,
        -9.605354164656931e-09,
        0.025399999693034067,
        -3.119969712714843e-09,
        0.0,
        0.4998376667499542,
        0.20066748559474945,
        0.08990109711885452,
        1.0
      ],
      "name": "Arch27_013_00_2"
    },
    {
      "mesh": 0,
      "name": "Object_4"
    },
    {
      "mesh": 1,
      "name": "Object_5"
    },
    {
      "mesh": 2,
      "name": "Object_6"
    },
    {
      "mesh": 3,
      "name": "Object_7"
    },
    {
      "mesh": 4,
      "name": "Object_8"
    },
    {
      "mesh": 5,
      "name": "Object_9"
    },
    {
      "mesh": 6,
      "name": "Object_10"
    }
  ],
  "samplers": [
    {
      "magFilter": 9729,
      "minFilter": 9987,
      "wrapS": 10497,
      "wrapT": 10497
    }
  ],
  "scene": 0,
  "scenes": [
    {
      "name": "Sketchfab_Scene",
      "nodes": [
        0
      ]
    }
  ],
  "textures": [
    {
      "sampler": 0,
      "source": 0
    },
    {
      "sampler": 0,
      "source": 1
    }
  ]
}
